<svg width="64" height="64" viewBox="0 0 64 64" fill="none" xmlns="http://www.w3.org/2000/svg">
  <defs>
    <linearGradient id="runtimeGradient" x1="0%" y1="0%" x2="100%" y2="100%">
      <stop offset="0%" style="stop-color:#F59E0B;stop-opacity:1" />
      <stop offset="100%" style="stop-color:#D97706;stop-opacity:1" />
    </linearGradient>
    <radialGradient id="performanceGlow" cx="50%" cy="50%" r="50%">
      <stop offset="0%" style="stop-color:#FEF3C7;stop-opacity:0.8" />
      <stop offset="100%" style="stop-color:#F59E0B;stop-opacity:0.2" />
    </radialGradient>
    <filter id="runtimeGlow">
      <feGaussianBlur stdDeviation="2" result="coloredBlur"/>
      <feMerge> 
        <feMergeNode in="coloredBlur"/>
        <feMergeNode in="SourceGraphic"/>
      </feMerge>
    </filter>
  </defs>
  
  <!-- Background performance glow -->
  <circle cx="32" cy="32" r="28" fill="url(#performanceGlow)"/>
  
  <!-- Central processing unit -->
  <rect x="24" y="24" width="16" height="16" rx="2" fill="url(#runtimeGradient)" filter="url(#runtimeGlow)"/>
  
  <!-- CPU pins/connections -->
  <g fill="url(#runtimeGradient)" opacity="0.8">
    <!-- Top pins -->
    <rect x="26" y="20" width="2" height="4" rx="1"/>
    <rect x="30" y="20" width="2" height="4" rx="1"/>
    <rect x="34" y="20" width="2" height="4" rx="1"/>
    <rect x="38" y="20" width="2" height="4" rx="1"/>
    
    <!-- Bottom pins -->
    <rect x="26" y="40" width="2" height="4" rx="1"/>
    <rect x="30" y="40" width="2" height="4" rx="1"/>
    <rect x="34" y="40" width="2" height="4" rx="1"/>
    <rect x="38" y="40" width="2" height="4" rx="1"/>
    
    <!-- Left pins -->
    <rect x="20" y="26" width="4" height="2" rx="1"/>
    <rect x="20" y="30" width="4" height="2" rx="1"/>
    <rect x="20" y="34" width="4" height="2" rx="1"/>
    <rect x="20" y="38" width="4" height="2" rx="1"/>
    
    <!-- Right pins -->
    <rect x="40" y="26" width="4" height="2" rx="1"/>
    <rect x="40" y="30" width="4" height="2" rx="1"/>
    <rect x="40" y="34" width="4" height="2" rx="1"/>
    <rect x="40" y="38" width="4" height="2" rx="1"/>
  </g>
  
  <!-- Performance indicators (speed lines) -->
  <g stroke="url(#runtimeGradient)" stroke-width="2" opacity="0.6">
    <path d="M8 16 L16 16" stroke-linecap="round"/>
    <path d="M8 20 L14 20" stroke-linecap="round"/>
    <path d="M8 24 L12 24" stroke-linecap="round"/>
    
    <path d="M56 16 L48 16" stroke-linecap="round"/>
    <path d="M56 20 L50 20" stroke-linecap="round"/>
    <path d="M56 24 L52 24" stroke-linecap="round"/>
    
    <path d="M8 40 L16 40" stroke-linecap="round"/>
    <path d="M8 44 L14 44" stroke-linecap="round"/>
    <path d="M8 48 L12 48" stroke-linecap="round"/>
    
    <path d="M56 40 L48 40" stroke-linecap="round"/>
    <path d="M56 44 L50 44" stroke-linecap="round"/>
    <path d="M56 48 L52 48" stroke-linecap="round"/>
  </g>
  
  <!-- Central circuit pattern -->
  <g fill="white" opacity="0.9">
    <circle cx="28" cy="28" r="1"/>
    <circle cx="36" cy="28" r="1"/>
    <circle cx="28" cy="36" r="1"/>
    <circle cx="36" cy="36" r="1"/>
    <circle cx="32" cy="32" r="1.5"/>
  </g>
  
  <!-- Connecting lines -->
  <g stroke="white" stroke-width="1" opacity="0.7">
    <line x1="28" y1="28" x2="32" y2="32"/>
    <line x1="36" y1="28" x2="32" y2="32"/>
    <line x1="28" y1="36" x2="32" y2="32"/>
    <line x1="36" y1="36" x2="32" y2="32"/>
  </g>
  
  <!-- Performance badge -->
  <rect x="46" y="8" width="12" height="8" rx="4" fill="url(#runtimeGradient)" opacity="0.9"/>
  <text x="52" y="13" fill="white" font-family="sans-serif" font-size="4" font-weight="bold" text-anchor="middle">⚡</text>
</svg>